<svg id="Layer_3" enable-background="new 0 0 64 64" height="512" viewBox="0 0 64 64" width="512" xmlns="http://www.w3.org/2000/svg"><g><path d="m12 2h40v28h-40z" fill="#f4b2b0"/><g fill="#b3404a"><path d="m47 5h2v2h-2z"/><path d="m43 5h2v2h-2z"/><path d="m39 5h2v2h-2z"/><path d="m62 53h-1v-33c0-1.654-1.346-3-3-3h-5v-15c0-.552-.448-1-1-1h-40c-.552 0-1 .448-1 1v15h-5c-1.654 0-3 1.346-3 3v33h-1c-.552 0-1 .448-1 1v4c0 2.757 2.243 5 5 5h52c2.757 0 5-2.243 5-5v-4c0-.552-.448-1-1-1zm-50-22h40c.552 0 1-.448 1-1v-7h2v26h-46v-26h2v7c0 .552.448 1 1 1zm1-20h38v18h-38zm38-8v6h-38v-6zm-46 17c0-.551.449-1 1-1h5v2h-3c-.552 0-1 .448-1 1v28c0 .552.448 1 1 1h48c.552 0 1-.448 1-1v-28c0-.552-.448-1-1-1h-3v-2h5c.551 0 1 .449 1 1v33h-54zm56 38c0 1.654-1.346 3-3 3h-52c-1.654 0-3-1.346-3-3v-3h58z"/><path d="m57 57h2v2h-2z"/><path d="m53 57h2v2h-2z"/><path d="m49 57h2v2h-2z"/><path d="m24 14c0-.431-.275-.812-.684-.949-.407-.135-.858.005-1.116.349l-6 8c-.228.303-.264.708-.095 1.047s.516.553.895.553h5v4h2v-4h2v-2h-2zm-2 7h-3l3-4z"/><path d="m46 14c0-.431-.275-.812-.684-.949-.408-.135-.857.005-1.116.349l-6 8c-.228.303-.264.708-.095 1.047s.516.553.895.553h5v4h2v-4h2v-2h-2zm-2 7h-3l3-4z"/><path d="m32 13c-2.206 0-4 1.794-4 4v6c0 2.206 1.794 4 4 4s4-1.794 4-4v-6c0-2.206-1.794-4-4-4zm2 10c0 1.103-.897 2-2 2s-2-.897-2-2v-6c0-1.103.897-2 2-2s2 .897 2 2z"/><path d="m28.707 44.707 3.293-3.293 3.293 3.293 1.414-1.414-3.293-3.293 3.293-3.293-1.414-1.414-3.293 3.293-3.293-3.293-1.414 1.414 3.293 3.293-3.293 3.293z"/><path d="m40.707 44.707 3.293-3.293 3.293 3.293 1.414-1.414-3.293-3.293 3.293-3.293-1.414-1.414-3.293 3.293-3.293-3.293-1.414 1.414 3.293 3.293-3.293 3.293z"/><path d="m16.707 44.707 3.293-3.293 3.293 3.293 1.414-1.414-3.293-3.293 3.293-3.293-1.414-1.414-3.293 3.293-3.293-3.293-1.414 1.414 3.293 3.293-3.293 3.293z"/></g></g></svg>